<?xml version="1.0" encoding="UTF-8" standalone="no"?>
<!DOCTYPE svg PUBLIC "-//W3C//DTD SVG 1.1//EN" "http://www.w3.org/Graphics/SVG/1.1/DTD/svg11.dtd">
<svg width="100%" height="100%" viewBox="0 0 6227 1057" version="1.1" xmlns="http://www.w3.org/2000/svg" xmlns:xlink="http://www.w3.org/1999/xlink" xml:space="preserve" xmlns:serif="http://www.serif.com/" style="fill-rule:evenodd;clip-rule:evenodd;stroke-linejoin:round;stroke-miterlimit:2;">
    <g id="Artboard1" transform="matrix(0.991403,0,0,0.869243,-1133.17,-311.189)">
        <rect x="1143" y="358" width="6281" height="1216" style="fill:none;"/>
        <clipPath id="_clip1">
            <rect x="1143" y="358" width="6281" height="1216"/>
        </clipPath>
        <g clip-path="url(#_clip1)">
            <g transform="matrix(4.2028,0,0,4.79344,-59.3369,-119.427)">
                <g transform="matrix(1,0,0,1,6.72,226.44)">
                    <rect x="0" y="0" width="4168" height="2825" style="fill:white;fill-rule:nonzero;"/>
                </g>
                <path d="M411.497,130.197C415.324,123.337 421.581,123.337 425.407,130.197L449.199,172.833C453.025,179.682 462.455,186.533 470.156,188.052L518.065,197.514C525.767,199.033 527.704,204.986 522.365,210.741L489.167,246.54C483.829,252.298 480.226,263.384 481.16,271.176L486.973,319.668C487.905,327.457 482.845,331.139 475.716,327.84L431.41,307.332C424.278,304.033 412.625,304.033 405.497,307.332L361.19,327.84C354.062,331.139 349.002,327.457 349.934,319.668L355.747,271.176C356.681,263.384 353.078,252.298 347.739,246.54L314.542,210.741C309.201,204.986 311.138,199.033 318.841,197.514L366.751,188.052C374.452,186.533 383.879,179.682 387.706,172.833L411.497,130.197Z" style="fill:rgb(102,103,103);"/>
                <path d="M718.903,130.197C722.73,123.337 728.986,123.337 732.813,130.197L756.604,172.833C760.431,179.682 769.858,186.533 777.559,188.052L825.47,197.514C833.169,199.033 835.109,204.986 829.771,210.741L796.567,246.54C791.23,252.298 787.629,263.384 788.563,271.176L794.374,319.668C795.308,327.457 790.25,331.139 783.12,327.84L738.813,307.332C731.684,304.033 720.032,304.033 712.901,307.332L668.596,327.84C661.465,331.139 656.405,327.457 657.339,319.668L663.152,271.176C664.087,263.384 660.48,252.298 655.146,246.54L621.945,210.741C616.607,204.986 618.544,199.033 626.244,197.514L674.158,188.052C681.855,186.533 691.285,179.682 695.112,172.833L718.903,130.197Z" style="fill:rgb(102,103,103);"/>
                <path d="M1026.31,130.197C1030.13,123.337 1036.39,123.337 1040.22,130.197L1064.01,172.833C1067.83,179.682 1077.26,186.533 1084.96,188.052L1132.88,197.514C1140.58,199.033 1142.51,204.986 1137.17,210.741L1103.97,246.54C1098.64,252.298 1095.03,263.384 1095.97,271.176L1101.78,319.668C1102.71,327.457 1097.65,331.139 1090.53,327.84L1046.22,307.332C1039.09,304.033 1027.43,304.033 1020.31,307.332L975.997,327.84C968.868,331.139 963.811,327.457 964.746,319.668L970.556,271.176C971.488,263.384 967.887,252.298 962.548,246.54L929.348,210.741C924.01,204.986 925.947,199.033 933.647,197.514L981.558,188.052C989.258,186.533 998.688,179.682 1002.51,172.833L1026.31,130.197Z" style="fill:rgb(102,103,103);"/>
                <path d="M1333.71,130.197C1337.54,123.337 1343.8,123.337 1347.62,130.197L1371.41,172.833C1375.24,179.682 1384.67,186.533 1392.37,188.052L1440.28,197.514C1447.98,199.033 1449.92,204.986 1444.58,210.741L1411.38,246.54C1406.04,252.298 1402.44,263.384 1403.37,271.176L1409.18,319.668C1410.12,327.457 1405.06,331.139 1397.93,327.84L1353.62,307.332C1346.49,304.033 1334.84,304.033 1327.71,307.332L1283.4,327.84C1276.27,331.139 1271.21,327.457 1272.15,319.668L1277.96,271.176C1278.89,263.384 1275.29,252.298 1269.95,246.54L1236.75,210.741C1231.41,204.986 1233.35,199.033 1241.05,197.514L1288.96,188.052C1296.66,186.533 1306.09,179.682 1309.92,172.833L1333.71,130.197Z" style="fill:rgb(102,103,103);"/>
                <path d="M1641.12,130.197C1644.94,123.337 1651.2,123.337 1655.03,130.197L1678.82,172.833C1682.64,179.682 1692.07,186.533 1699.77,188.052L1747.68,197.514C1755.38,199.033 1757.32,204.986 1751.98,210.741L1718.78,246.54C1713.44,252.298 1709.84,263.384 1710.78,271.176L1716.59,319.668C1717.52,327.457 1712.46,331.139 1705.33,327.84L1661.02,307.332C1653.9,304.033 1642.25,304.033 1635.12,307.332L1590.81,327.84C1583.68,331.139 1578.62,327.457 1579.55,319.668L1585.37,271.176C1586.3,263.384 1582.7,252.298 1577.36,246.54L1544.16,210.741C1538.82,204.986 1540.76,199.033 1548.46,197.514L1596.37,188.052C1604.07,186.533 1613.5,179.682 1617.32,172.833L1641.12,130.197Z" style="fill:rgb(102,103,103);"/>
            </g>
        </g>
    </g>
</svg>
